<?xml version="1.0" encoding="UTF-8"?>
<svg xmlns="http://www.w3.org/2000/svg" xmlns:xlink="http://www.w3.org/1999/xlink" viewBox="0 0 452.08 452.08">
  <defs>
    <style>
      .cls-1 {
        fill: url(#radial-gradient-3);
      }

      .cls-1, .cls-2, .cls-3, .cls-4, .cls-5, .cls-6, .cls-7, .cls-8, .cls-9, .cls-10, .cls-11, .cls-12, .cls-13, .cls-14, .cls-15, .cls-16, .cls-17, .cls-18, .cls-19, .cls-20, .cls-21, .cls-22, .cls-23, .cls-24, .cls-25, .cls-26, .cls-27, .cls-28, .cls-29, .cls-30 {
        mix-blend-mode: screen;
      }

      .cls-2 {
        fill: url(#radial-gradient-4);
      }

      .cls-2, .cls-3, .cls-9, .cls-11, .cls-15, .cls-16, .cls-17, .cls-18, .cls-20, .cls-21, .cls-23, .cls-25, .cls-26, .cls-28, .cls-30 {
        opacity: .6;
      }

      .cls-31 {
        fill: url(#linear-gradient);
        stroke: url(#linear-gradient-2);
        stroke-miterlimit: 10;
        stroke-width: 3px;
      }

      .cls-3 {
        fill: url(#radial-gradient-26);
      }

      .cls-4 {
        fill: url(#radial-gradient);
      }

      .cls-5 {
        fill: url(#radial-gradient-16);
      }

      .cls-6 {
        fill: url(#radial-gradient-28);
      }

      .cls-6, .cls-7 {
        opacity: .9;
      }

      .cls-32 {
        fill: #2a3375;
      }

      .cls-7 {
        fill: url(#radial-gradient-27);
      }

      .cls-8 {
        fill: url(#radial-gradient-7);
      }

      .cls-33 {
        fill: #965aa4;
      }

      .cls-9 {
        fill: url(#radial-gradient-19);
      }

      .cls-34 {
        fill: url(#linear-gradient-6);
      }

      .cls-10 {
        fill: url(#radial-gradient-21);
      }

      .cls-11 {
        fill: url(#radial-gradient-5);
      }

      .cls-12 {
        fill: url(#radial-gradient-22);
      }

      .cls-13 {
        fill: url(#radial-gradient-20);
      }

      .cls-14 {
        fill: url(#radial-gradient-13);
      }

      .cls-15 {
        fill: url(#radial-gradient-29);
      }

      .cls-35 {
        fill: url(#linear-gradient-10);
      }

      .cls-16 {
        fill: url(#radial-gradient-14);
      }

      .cls-17 {
        fill: url(#radial-gradient-24);
      }

      .cls-36 {
        fill: none;
        isolation: isolate;
      }

      .cls-18 {
        fill: url(#radial-gradient-8);
      }

      .cls-19 {
        fill: url(#radial-gradient-17);
      }

      .cls-20 {
        fill: url(#radial-gradient-10);
      }

      .cls-21 {
        fill: url(#radial-gradient-23);
      }

      .cls-22 {
        fill: url(#radial-gradient-12);
      }

      .cls-37 {
        fill: url(#linear-gradient-5);
      }

      .cls-38 {
        fill: url(#linear-gradient-7);
      }

      .cls-23 {
        fill: url(#radial-gradient-30);
      }

      .cls-24 {
        fill: url(#radial-gradient-2);
      }

      .cls-25 {
        fill: url(#radial-gradient-25);
      }

      .cls-39 {
        fill: url(#linear-gradient-9);
      }

      .cls-26 {
        fill: url(#radial-gradient-9);
      }

      .cls-27 {
        fill: url(#radial-gradient-6);
      }

      .cls-40 {
        fill: url(#linear-gradient-3);
      }

      .cls-28 {
        fill: url(#radial-gradient-15);
      }

      .cls-29 {
        fill: url(#radial-gradient-11);
      }

      .cls-30 {
        fill: url(#radial-gradient-18);
      }

      .cls-41 {
        fill: url(#linear-gradient-4);
      }

      .cls-42 {
        fill: url(#linear-gradient-8);
      }
    </style>
    <linearGradient id="linear-gradient" x1="60.35" y1="85.06" x2="123.44" y2="85.06" gradientUnits="userSpaceOnUse">
      <stop offset=".99" stop-color="#fff200"/>
      <stop offset="1" stop-color="#fff"/>
    </linearGradient>
    <linearGradient id="linear-gradient-2" x1="65.32" y1="103.06" x2="124.02" y2="69.17" gradientUnits="userSpaceOnUse">
      <stop offset="0" stop-color="#fff200"/>
      <stop offset=".11" stop-color="#fff206"/>
      <stop offset=".27" stop-color="#fff218"/>
      <stop offset=".45" stop-color="#fff435"/>
      <stop offset=".65" stop-color="#fff55e"/>
      <stop offset=".87" stop-color="#fff791"/>
      <stop offset=".92" stop-color="#fff89f"/>
    </linearGradient>
    <linearGradient id="linear-gradient-3" x1="125.68" y1="56.4" x2="213.96" y2="209.3" gradientUnits="userSpaceOnUse">
      <stop offset="0" stop-color="#fff200"/>
      <stop offset="1" stop-color="#fff"/>
    </linearGradient>
    <linearGradient id="linear-gradient-4" x1="319.49" y1="40.48" x2="319.49" y2="233.42" gradientUnits="userSpaceOnUse">
      <stop offset=".05" stop-color="#2faca4"/>
      <stop offset=".29" stop-color="#13a9a0"/>
      <stop offset="1" stop-color="#fff"/>
    </linearGradient>
    <linearGradient id="linear-gradient-5" x1="43.28" y1="308.46" x2="124.53" y2="308.46" gradientUnits="userSpaceOnUse">
      <stop offset="0" stop-color="#cceaee"/>
      <stop offset="1" stop-color="#8fcfcc"/>
    </linearGradient>
    <radialGradient id="radial-gradient" cx="95.31" cy="306.44" fx="95.31" fy="306.44" r="18.59" gradientUnits="userSpaceOnUse">
      <stop offset="0" stop-color="#d6e9ee"/>
      <stop offset="1" stop-color="#010101"/>
    </radialGradient>
    <radialGradient id="radial-gradient-2" cx="79.77" cy="283.59" fx="79.77" fy="283.59" r="29.81" xlink:href="#radial-gradient"/>
    <radialGradient id="radial-gradient-3" cx="75.55" cy="338.67" fx="75.55" fy="338.67" r="21.22" xlink:href="#radial-gradient"/>
    <radialGradient id="radial-gradient-4" cx="61.8" cy="273.5" fx="61.8" fy="273.5" r="12.21" gradientUnits="userSpaceOnUse">
      <stop offset="0" stop-color="#fff"/>
      <stop offset=".19" stop-color="#d3d3d3"/>
      <stop offset=".62" stop-color="#666"/>
      <stop offset="1" stop-color="#010101"/>
    </radialGradient>
    <radialGradient id="radial-gradient-5" cx="81.8" cy="263.72" fx="81.8" fy="263.72" r="3.19" xlink:href="#radial-gradient-4"/>
    <linearGradient id="linear-gradient-6" x1="124.01" y1="323.72" x2="177.88" y2="323.72" gradientUnits="userSpaceOnUse">
      <stop offset="0" stop-color="#fbf06d"/>
      <stop offset="1" stop-color="#feda36"/>
    </linearGradient>
    <radialGradient id="radial-gradient-6" cx="140.31" cy="325.42" fx="140.31" fy="325.42" r="15.21" gradientTransform="translate(12.52 37.2) scale(.93 .9)" gradientUnits="userSpaceOnUse">
      <stop offset="0" stop-color="#f37569"/>
      <stop offset=".09" stop-color="#ea7165"/>
      <stop offset=".23" stop-color="#d4665b"/>
      <stop offset=".4" stop-color="#af544b"/>
      <stop offset=".6" stop-color="#7b3b35"/>
      <stop offset=".82" stop-color="#3b1c1a"/>
      <stop offset="1" stop-color="#010101"/>
    </radialGradient>
    <radialGradient id="radial-gradient-7" cx="149.3" cy="292.83" fx="149.3" fy="292.83" r="19.86" xlink:href="#radial-gradient-6"/>
    <radialGradient id="radial-gradient-8" cx="132.75" cy="290.31" fx="132.75" fy="290.31" r="7.42" gradientTransform="translate(12.52 37.2) scale(.93 .9)" xlink:href="#radial-gradient-4"/>
    <radialGradient id="radial-gradient-9" cx="146.38" cy="288.87" fx="146.38" fy="288.87" r="2.07" gradientTransform="translate(12.52 37.2) scale(.93 .9)" xlink:href="#radial-gradient-4"/>
    <radialGradient id="radial-gradient-10" cx="142.05" cy="309.29" fx="142.05" fy="309.29" r="3.8" gradientTransform="translate(12.52 37.2) scale(.93 .9)" xlink:href="#radial-gradient-4"/>
    <linearGradient id="linear-gradient-7" x1="149.34" y1="296.5" x2="208.01" y2="296.5" gradientTransform="translate(-17.22 61.86) rotate(-9.47)" xlink:href="#linear-gradient-5"/>
    <radialGradient id="radial-gradient-11" cx="177.9" cy="275.99" fx="177.9" fy="275.99" r="29.22" gradientTransform="translate(-37.78 110.07) rotate(-7.41) scale(1.09 .86) skewX(3.69)" xlink:href="#radial-gradient"/>
    <radialGradient id="radial-gradient-12" cx="181.16" cy="284.64" fx="181.16" fy="284.64" r="5.86" gradientTransform="translate(-37.78 110.07) rotate(-7.41) scale(1.09 .86) skewX(3.69)" xlink:href="#radial-gradient"/>
    <radialGradient id="radial-gradient-13" cx="182.18" cy="308.55" fx="182.18" fy="308.55" r="8.85" gradientTransform="translate(-37.78 110.07) rotate(-7.41) scale(1.09 .86) skewX(3.69)" xlink:href="#radial-gradient"/>
    <radialGradient id="radial-gradient-14" cx="164.76" cy="260.09" fx="164.76" fy="260.09" r="6.21" gradientTransform="translate(-37.78 110.07) rotate(-7.41) scale(1.09 .86) skewX(3.69)" xlink:href="#radial-gradient-4"/>
    <radialGradient id="radial-gradient-15" cx="161.82" cy="273.63" fx="161.82" fy="273.63" r="3.29" gradientTransform="translate(-37.78 110.07) rotate(-7.41) scale(1.09 .86) skewX(3.69)" xlink:href="#radial-gradient-4"/>
    <linearGradient id="linear-gradient-8" x1="243.83" y1="323.06" x2="297.34" y2="323.06" xlink:href="#linear-gradient-6"/>
    <radialGradient id="radial-gradient-16" cx="268.48" cy="314.51" fx="268.48" fy="314.51" r="27.16" gradientTransform="translate(-18.56 43.3) scale(1.07 .89)" gradientUnits="userSpaceOnUse">
      <stop offset="0" stop-color="#fee35f"/>
      <stop offset=".14" stop-color="#fadf5d"/>
      <stop offset=".26" stop-color="#efd559"/>
      <stop offset=".39" stop-color="#dcc452"/>
      <stop offset=".51" stop-color="#c1ad48"/>
      <stop offset=".63" stop-color="#9f8e3b"/>
      <stop offset=".75" stop-color="#75682c"/>
      <stop offset=".87" stop-color="#433c19"/>
      <stop offset=".98" stop-color="#0b0a04"/>
      <stop offset="1" stop-color="#010101"/>
    </radialGradient>
    <radialGradient id="radial-gradient-17" cx="271.71" cy="309.26" fx="271.71" fy="309.26" r="8.02" xlink:href="#radial-gradient-16"/>
    <radialGradient id="radial-gradient-18" cx="254.89" cy="292.96" fx="254.89" fy="292.96" r="7.03" gradientTransform="translate(-18.56 43.3) scale(1.07 .89)" xlink:href="#radial-gradient-4"/>
    <radialGradient id="radial-gradient-19" cx="249.79" cy="307.38" fx="249.79" fy="307.38" r="3.41" gradientTransform="translate(-18.56 43.3) scale(1.07 .89)" xlink:href="#radial-gradient-4"/>
    <linearGradient id="linear-gradient-9" x1="303.64" y1="322.48" x2="357.27" y2="322.48" gradientUnits="userSpaceOnUse">
      <stop offset="0" stop-color="#b56fae"/>
      <stop offset="1" stop-color="#a559a3"/>
    </linearGradient>
    <radialGradient id="radial-gradient-20" cx="337.93" cy="288.4" fx="337.93" fy="288.4" r="14.4" gradientTransform="translate(-5.71 72.39) scale(1.02 .81)" gradientUnits="userSpaceOnUse">
      <stop offset="0" stop-color="#b56fae"/>
      <stop offset=".11" stop-color="#ab69a4"/>
      <stop offset=".3" stop-color="#90588b"/>
      <stop offset=".54" stop-color="#653e61"/>
      <stop offset=".82" stop-color="#2a1a29"/>
      <stop offset="1" stop-color="#010101"/>
    </radialGradient>
    <radialGradient id="radial-gradient-21" cx="333.6" cy="325.72" fx="333.6" fy="325.72" r="10.47" xlink:href="#radial-gradient-20"/>
    <radialGradient id="radial-gradient-22" cx="312.34" cy="306.47" fx="312.34" fy="306.47" r="24.68" xlink:href="#radial-gradient-20"/>
    <radialGradient id="radial-gradient-23" cx="332.82" cy="290.57" fx="332.82" fy="290.57" r="5.6" gradientTransform="translate(-5.71 72.39) scale(1.02 .81)" xlink:href="#radial-gradient-4"/>
    <radialGradient id="radial-gradient-24" cx="342.2" cy="283.25" fx="342.2" fy="283.25" r="2" gradientTransform="translate(-5.71 72.39) scale(1.02 .81)" xlink:href="#radial-gradient-4"/>
    <radialGradient id="radial-gradient-25" cx="307.38" cy="285.84" fx="307.38" fy="285.84" r="5.48" gradientTransform="translate(-5.71 72.39) scale(1.02 .81)" xlink:href="#radial-gradient-4"/>
    <radialGradient id="radial-gradient-26" cx="307.56" cy="298.49" fx="307.56" fy="298.49" r="2" gradientTransform="translate(-5.71 72.39) scale(1.02 .81)" xlink:href="#radial-gradient-4"/>
    <linearGradient id="linear-gradient-10" x1="356.97" y1="325.65" x2="411.04" y2="325.65" gradientUnits="userSpaceOnUse">
      <stop offset="0" stop-color="#42c0c0"/>
      <stop offset="1" stop-color="#19a99d"/>
    </linearGradient>
    <radialGradient id="radial-gradient-27" cx="478.46" cy="320.88" fx="478.46" fy="320.88" r="17.54" gradientTransform="translate(70.6 100.69) scale(.66 .72)" gradientUnits="userSpaceOnUse">
      <stop offset="0" stop-color="#2ac0d4"/>
      <stop offset=".1" stop-color="#28bacd"/>
      <stop offset=".25" stop-color="#25aabc"/>
      <stop offset=".41" stop-color="#1f909f"/>
      <stop offset=".59" stop-color="#176c77"/>
      <stop offset=".78" stop-color="#0d3d43"/>
      <stop offset=".99" stop-color="#010505"/>
      <stop offset="1" stop-color="#010101"/>
    </radialGradient>
    <radialGradient id="radial-gradient-28" cx="473.57" cy="304.9" fx="473.57" fy="304.9" r="33.56" xlink:href="#radial-gradient-27"/>
    <radialGradient id="radial-gradient-29" cx="458.65" cy="285.55" fx="458.65" fy="285.55" r="12.04" gradientTransform="translate(70.6 100.69) scale(.66 .72)" xlink:href="#radial-gradient-4"/>
    <radialGradient id="radial-gradient-30" cx="441.44" cy="302.84" fx="441.44" fy="302.84" r="4.63" gradientTransform="translate(70.6 100.69) scale(.66 .72)" xlink:href="#radial-gradient-4"/>
  </defs>
  <g class="cls-36">
    <g id="Layer_1" data-name="Layer 1">
      <g>
        <circle class="cls-32" cx="226.04" cy="226.04" r="226.04"/>
        <path class="cls-31" d="m60.35,91.4c.09-.4,4.85,1.92,11.99,1.04,13.81-1.69,17.41-12.97,31.81-18.25,4.17-1.53,10.52-3.03,19.29-2.09v6.78c-4.23,5.67-12.03,14.23-23.99,17.73-19.02,5.56-39.29-4.39-39.11-5.21Z"/>
        <path class="cls-40" d="m142.76,99.41c-19.21-9.9-19.64-37.58-14.37-41.37,1.08-1.69,2.83-3.97,5.5-6.08,4.13-3.26,8.33-4.41,10.66-4.87,1.67-.32,5.37-.8,9.67.7,3.99,1.38,6.49,3.77,7.63,5.01,2.18,1.89,5.74,5.52,8.01,11.15,3.94,9.77,1.22,18.63.33,21.18,6.22-7.3,13.22-14.95,21.05-22.74,8.23-8.19,16.3-15.47,23.99-21.9-5.28,11.11-10.35,19.68-14.08,25.55-4.84,7.62-6.03,8.5-8.86,14.08-5.92,11.68-7.62,21.44-8.22,26.05-.12.92-.1,1.6-.25,2.18-3.38,12.92-.87,24.58,1.7,32.25,2.55,6.26,5.33,12.7,8.34,19.29,3.6,7.87,7.27,15.35,10.95,22.42h-13.56l2.61,38.59-18.25-39.63-22.42.52-31.29,39.11,15.12-38.07-9.91,2.61,18.25-63.62c-7.9,1.37-16.63,2.49-26.07,3.13-12.66.86-24.23.69-34.42,0,8.04-1.81,17.46-4.57,27.64-8.86,12.39-5.22,22.48-11.27,30.24-16.69Z"/>
        <path class="cls-41" d="m247.53,40.48c12.41,11.91,24.93,24.43,37.51,37.57,5.16,5.4,10.21,10.78,15.16,16.14-3.68-9.94-2.03-20.34,4.32-26.48,3.71-3.59,8.12-4.84,10.8-5.33-.08-.58-.46-3.04-2.61-4.69-2.15-1.66-5.2-1.86-7.82-.52,2.35-1.49,8.85-5.19,17.73-4.69,6.41.36,11.15,2.74,13.56,4.17,2.51,1.5,7.99,4.95,10.95,11.99,2.34,5.58,1.92,10.64,1.56,13.04.51,3.43.01,6.08-.52,7.82-3.49,11.38-17.91,14.38-18.77,14.55,11.79,6.58,25.7,13.19,41.72,18.83,7.05,2.48,13.85,4.54,20.34,6.26-14.6,1.79-30.47,2.97-47.45,3.13-6.62.06-13.06-.03-19.29-.26-.91,4.06-1.67,9.29-1.56,15.38.15,8.55,1.97,15.53,3.65,20.34,2.71,9.7,5.97,20,9.91,30.77,4.65,12.74,9.62,24.39,14.6,34.94-9.03-12.87-20.49-27.04-34.94-41.19-6.72-6.59-13.38-12.48-19.82-17.73-3.18,2.73-7.37,7.13-9.91,13.56-1.59,4.04-1.67,6.7-2.61,14.08-.84,6.58-2.86,22.46-4.17,22.42-1.1-.03-1.38-11.27-2.61-30.77-1.67-26.47-2.47-26.54-2.61-35.98-.16-11.02.7-27.07,5.74-46.93-4.09-10.65-8.75-21.82-14.08-33.37-6.15-13.34-12.48-25.69-18.77-37.02Z"/>
        <g>
          <path class="cls-33" d="m232.89,247.13c65.83,0,126.69,2.2,176.31,5.92-43.27-7.04-106.32-11.48-176.55-11.48s-133.66,4.47-176.95,11.55c49.78-3.76,110.97-5.98,177.19-5.98Z"/>
          <path class="cls-33" d="m232.02,309.95c.21,0,.42,0,.63,0,.03,0,.07,0,.1,0-.25,0-.49,0-.73,0Z"/>
        </g>
        <g>
          <path class="cls-37" d="m62.37,329.7c-16.87-4.95-24.02,21.29-7.23,26.22,17.94,5.27,38.33,9.11,54.73-2.58,15.82-11.27,20.93-36.34,4.75-49.85-7.36-6.15-16.53-7.83-25.89-7.84-3.39,0-15.21,2.41-17.53-.84-2.88-4.03.99-8.09,5.15-10.41,6.81-3.79,16.25-.65,22.93,1.69,7,2.45,14.86-2.72,16.73-9.5,2.07-7.51-2.51-14.28-9.5-16.73-18.52-6.47-39.76-5.93-54.17,8.9-14.27,14.68-11.51,40.67,6.93,50.43,7.83,4.14,16.98,4.23,25.6,3.79,3.26-.17,6.61-.41,9.8.24,2.07.42,2.62.53,2.72,1.65,1.41,15.19-27.98,6.89-35.03,4.82Z"/>
          <path class="cls-4" d="m80.35,304.35c2.63,0,5.5-.31,7.81-.56,1.43-.15,2.78-.3,3.47-.3,10.65.01,18.35,2.31,24.24,7.24,1.62,1.35,3.03,2.87,4.22,4.51-1.51-3.75-3.9-7.07-7.12-9.76-5.89-4.92-13.59-7.22-24.24-7.24-.69,0-2.04.15-3.47.3-2.31.25-5.18.56-7.81.56-2.13,0-4.93-.19-6.91-1.46.09,1.37.58,2.7,1.45,3.92,1.78,2.49,5.62,2.78,8.35,2.78Z"/>
          <path class="cls-24" d="m57.11,275.82c7.66-7.89,18.13-12.05,30.27-12.05,6.85,0,13.98,1.28,21.19,3.8,1.9.66,3.68,1.78,5.11,3.24-.9-4.06-4.22-7.17-8.01-8.49-7.21-2.52-14.34-3.8-21.19-3.8-12.14,0-22.61,4.17-30.27,12.05-6.48,6.67-9.46,16.34-7.96,25.86.72,4.55,2.41,8.7,4.89,12.22-.92-2.19-1.6-4.52-1.99-6.97-1.5-9.52,1.47-19.19,7.96-25.86Z"/>
          <path class="cls-1" d="m85.28,336.41c-6.12,0-14.08-1.42-23.64-4.23-1.16-.34-2.3-.51-3.38-.51-5.89,0-9.29,5.04-9.97,9.73-.46,3.22.24,6.94,3.02,9.53-.3-1.43-.31-2.9-.12-4.28.67-4.69,4.08-9.73,9.97-9.73,1.08,0,2.21.17,3.38.51,9.56,2.81,17.51,4.23,23.64,4.23s9.95-1.31,12.4-3.99c1.82-2,2.6-4.62,2.3-7.78-.2-2.12-1.42-2.99-2.86-3.47-.1,2.38-.87,4.39-2.34,6-2.45,2.68-6.5,3.99-12.4,3.99Z"/>
          <path class="cls-2" d="m70.68,262.15c-10.07,2.15-17.98,9.31-21.6,18.87-1.48,3.91,4.78,5.59,6.24,1.72,2.83-7.49,9.32-12.69,17.08-14.35,4.08-.87,2.35-7.11-1.72-6.24Z"/>
          <path class="cls-11" d="m81.8,260.48c-4.18,0-4.18,6.48,0,6.48s4.18-6.48,0-6.48Z"/>
        </g>
        <g>
          <path class="cls-34" d="m155.78,345.71c.13-11.85.59-23.7,1.33-35.53,4.19.15,8.38.38,12.57.7,4.46.34,8.2-3.89,8.2-7.98,0-4.61-3.74-7.64-8.2-7.98-12.57-.97-25.17-1.15-37.76-.54-10.52.51-10.57,16.48,0,15.97,2.94-.14,5.87-.24,8.81-.29-.75,11.88-1.21,23.76-1.34,35.66-.11,10.3,16.28,10.29,16.39,0Z"/>
          <path class="cls-27" d="m142.7,348.81c.12-11.57.58-23.54,1.34-35.59l.1-1.65-1.69.03c-.08,0-.16,0-.24,0-.71,11.55-1.13,23.02-1.25,34.11-.02,1.79.54,3.25,1.65,4.34.07.07.16.14.23.21-.09-.46-.14-.95-.13-1.47Z"/>
          <path class="cls-8" d="m133.75,298.97c4.81-.23,9.69-.35,14.51-.35,7.65,0,15.41.3,23.05.89,1.75.13,3.56.82,4.87,2.04-.67-3.21-3.74-4.9-6.62-5.13-7.64-.59-15.4-.89-23.05-.89-4.81,0-9.69.12-14.51.35-4.53.22-6.5,3.81-6.42,7.05.04,1.6.61,3.36,1.93,4.53-.11-.48-.17-.97-.18-1.45-.08-3.24,1.89-6.83,6.42-7.05Z"/>
          <path class="cls-18" d="m142.69,295.94c-4.52-.24-15.41-1.34-16.16,4.98-.29,2.43,3.62,2.41,3.9,0,.12-1,5.46-1.28,6.11-1.32,2.04-.12,4.11.02,6.14.13,2.52.14,2.5-3.67,0-3.8Z"/>
          <path class="cls-26" d="m148.17,299.84c2.52,0,2.52-3.8,0-3.8s-2.52,3.8,0,3.8Z"/>
          <path class="cls-20" d="m146.01,318.95c.07-1.72.13-3.45.2-5.17.09-2.45-3.81-2.44-3.9,0-.07,1.72-.13,3.45-.2,5.17-.09,2.45,3.81,2.44,3.9,0Z"/>
        </g>
        <g>
          <path class="cls-38" d="m190.41,355.11c9.79.01,19.59.03,29.38.04,5.11,0,9.75-2.26,10.32-6.52.49-3.66-3.25-8.03-8.37-8.04-7.16-.01-14.32-.02-21.48-.03-.1-1.76-.19-3.51-.27-5.27,4-.18,7.99-.37,11.99-.55,5.12-.24,8.49-4.81,7.72-8.42-.91-4.25-5.7-6.25-10.81-6.01-3.08.14-6.17.28-9.25.42-.02-3.64,0-7.29.09-10.93,7.88-.11,15.76-.22,23.64-.33,5.11-.07,9.74-2.2,10.32-6.52.48-3.6-3.24-8.11-8.37-8.04-11.26.16-22.51.32-33.77.48-4.8.07-10.15,2.19-10.32,6.52-.59,15.72-.26,31.44.9,47.14.22,2.97,4.49,6.07,8.29,6.08Z"/>
          <path class="cls-29" d="m186.48,351.48c-1.17-15.85-1.47-31.67-.9-47.02.12-3.08,3.61-4.63,6.85-5.05.57-.07,1.14-.12,1.71-.12l33.77-.48c1.32-.02,2.4.37,3.24.85-.38-.65-.89-1.26-1.51-1.79-.87-.74-2.33-1.62-4.3-1.59l-33.77.48c-.57,0-1.14.05-1.71.12-3.23.42-6.73,1.97-6.85,5.05-.58,15.35-.28,31.16.9,47.02.1,1.31,1.34,2.72,2.92,3.66-.2-.38-.32-.76-.35-1.13Z"/>
          <path class="cls-22" d="m200.43,324.73l11.14-.51c1.97-.09,4.2.22,5.96,1.14-1.41-2.9-5.32-3.82-8.53-3.67l-8.57.39c0,.39,0,.79,0,1.18v1.47Z"/>
          <path class="cls-14" d="m201.11,344.48l23.19.03c1.15,0,2.28.32,3.3.89-.37-.63-.85-1.22-1.44-1.73-1.25-1.09-2.83-1.68-4.43-1.69l-20.75-.03c.02.4.04.8.06,1.2l.08,1.33Z"/>
          <path class="cls-16" d="m188.01,310.39c-.32-3.24.21-6.42,1.53-9.51.91-2.13-3.27-3.37-4.18-1.24-1.58,3.69-2.14,7.44-1.76,11.32.22,2.24,4.63,1.65,4.41-.57Z"/>
          <path class="cls-28" d="m186.24,320.62c1.17-.15,2.09-1.08,1.84-2.01-.26-.98-.25-1.9,0-2.89.24-.93-.86-1.82-1.99-1.91-1.3-.1-2.22.62-2.46,1.55-.32,1.26-.29,2.57.04,3.82.25.93,1.33,1.59,2.57,1.43Z"/>
        </g>
        <g>
          <path class="cls-42" d="m261.73,345.72c.11-4.19.26-8.39.45-12.58,6,.78,11.88,1.17,17.94-.06,7.19-1.46,13.18-6,15.64-11.73,4.98-11.6-2.22-23.42-16.21-27.12-6.98-1.84-14.65-.73-21.68.18-9.34,1.21-11.32,7.54-11.93,14.27-1.12,12.32-1.8,24.67-2.11,37.03-.24,9.55,17.66,9.53,17.9,0Zm17.63-30.68c-.25,5.91-11.17,4.04-15.39,3.43-.3-.04-.61-.08-.91-.1.2-2.77.42-5.53.66-8.3.05-.53.1-1.06.14-1.59,1.57-.19,3.18-.28,4.71-.37,6.51-.39,11.04,1.14,10.79,6.93Z"/>
          <path class="cls-5" d="m279.04,295.58c-2.37-.63-4.98-.93-8-.93-4.01,0-8.12.54-12.09,1.06l-.81.11c-7.82,1.02-9.85,5.93-10.5,12.99-1.07,11.79-1.78,24.22-2.11,36.95-.04,1.65.54,3,1.74,4.01.09.08.2.15.3.23-.1-.44-.15-.9-.13-1.38.32-12.73,1.03-25.16,2.11-36.95.64-7.06,2.67-11.97,10.5-12.99l.81-.11c3.97-.52,8.08-1.06,12.09-1.06,3.01,0,5.63.3,8,.93,5.35,1.41,9.77,4.14,12.72,7.77-.13-.24-.26-.49-.41-.73-2.82-4.71-7.87-8.22-14.23-9.9Z"/>
          <path class="cls-19" d="m281.06,315.09c-.09,2.07-1.41,5.55-9.23,5.55-2.81,0-5.69-.43-7.6-.71l-.56-.08c-.1-.01-.2-.02-.3-.03-.03.44-.07.88-.1,1.31l-.1,1.35,1.63.13c.26.02.52.05.78.09l.56.08c1.91.28,4.8.71,7.6.71,7.82,0,9.14-3.48,9.23-5.55.11-2.63-.67-4.69-2.33-6.12.33.97.48,2.05.42,3.26Z"/>
          <path class="cls-30" d="m259.54,299.78c2.74-.06,2.75-3.58,0-3.52-7.84.17-11.35,6.44-11.09,12.18.1,2.26,4.36,2.27,4.26,0-.16-3.69,1.39-8.54,6.83-8.66Z"/>
          <path class="cls-9" d="m251.78,318.16c-.07-1.44-.14-2.88-.21-4.33-.11-2.26-4.37-2.27-4.26,0,.07,1.44.14,2.88.21,4.33.11,2.26,4.37,2.27,4.26,0Z"/>
        </g>
        <g>
          <path class="cls-39" d="m354.72,298.28c-3.58-2.86-8.66-2.42-12.3,0-6.88,4.58-14.01,8.9-21.36,12.98,0-3.99-.02-7.97-.03-11.96-.02-8.97-17.42-8.97-17.4,0,.04,15.45.08,30.9.11,46.35.02,8.97,17.42,8.97,17.4,0-.01-5.9-.03-11.79-.04-17.69.06-.03.12-.05.18-.08,1.34-.69,2.67-1.4,3.99-2.11,4.17,7.34,8.33,14.69,12.5,22.03,1.96,3.45,8.13,4.26,11.9,2.49,4.4-2.06,5.08-6.06,3.12-9.51-4.38-7.72-8.76-15.44-13.14-23.16,5.13-3.06,10.15-6.23,15.07-9.51,3.65-2.43,3.12-7.34,0-9.83Z"/>
          <path class="cls-13" d="m323.87,315.04c7.51-4.17,14.73-8.56,21.47-13.05,1.62-1.08,3.54-1.68,5.38-1.68,1.74,0,3.34.54,4.64,1.56-.32-1.02-.95-1.96-1.81-2.65-1.31-1.04-2.93-1.6-4.69-1.6s-3.76.6-5.38,1.68c-6.74,4.49-13.97,8.88-21.47,13.05l-.75.42v3.71s2.61-1.44,2.61-1.44Z"/>
          <path class="cls-10" d="m327.57,326.62l11.7,20.64c.24.42.57.78.95,1.09l-12.4-21.86-.26.14Z"/>
          <path class="cls-12" d="m307.15,301.99c0-1.56.6-2.83,1.8-3.79,1.28-1.02,3.18-1.61,5.23-1.61,1.85,0,3.7.47,5.05,1.46-.71-2.85-3.82-4.14-6.91-4.14-2.05,0-3.95.59-5.23,1.61-1.2.96-1.8,2.23-1.8,3.79l.11,46.35c0,1.76.8,3.06,2.01,3.95-.1-.39-.15-.81-.15-1.26l-.11-46.35Z"/>
          <path class="cls-21" d="m335.75,305.18c-2.53,1.66-5.18,3.17-7.95,4.56-2.26,1.13-.18,4,2.09,2.86,3.07-1.54,5.99-3.24,8.79-5.08,2.07-1.36-.88-3.68-2.93-2.34Z"/>
          <path class="cls-17" d="m342.65,301.21c-2.67,0-2.67,3.31,0,3.31s2.67-3.31,0-3.31Z"/>
          <path class="cls-25" d="m309.21,300.53c.14-2.13-4-2.12-4.14,0-.2,2.97-.12,5.93.24,8.9.25,2.11,4.4,2.13,4.14,0-.35-2.96-.43-5.92-.24-8.9Z"/>
          <path class="cls-3" d="m307.39,313.6c-2.67,0-2.67,3.31,0,3.31s2.67-3.31,0-3.31Z"/>
        </g>
        <g>
          <path class="cls-35" d="m369.44,350.45c5.97,4.7,13.67,5.6,20.71,4.19,7.58-1.51,14.29-6.42,17.96-14.89,5.89-13.62,2.76-29.8-8.1-38.53-.29-.25-.59-.49-.92-.72-.24-.17-.48-.33-.73-.46-12.99-8.1-29.45-3.49-37.42,10.24-8.08,13.92-3.1,31.02,8.51,40.16Zm4.56-30.51c3.22-7.14,11.19-8.64,17.14-4.68,4.48,3.29,5.24,9.31,3.13,14.12-3.25,7.41-9.13,11.27-16.02,6.92-5.3-3.35-6.86-10.58-4.25-16.37Z"/>
          <path class="cls-7" d="m395.48,329.1c-2.69,6.15-6.96,9.68-11.7,9.68-2.11,0-4.28-.69-6.43-2.05-1.47-.93-2.69-2.15-3.66-3.56,1,2.82,2.82,5.27,5.34,6.86,2.15,1.36,4.32,2.05,6.43,2.05,4.74,0,9.01-3.53,11.7-9.68,2.07-4.73,1.57-9.86-1.07-13.55,1.05,3.15.9,6.8-.61,10.25Z"/>
          <path class="cls-6" d="m362.7,340.38c-3.62-8.33-3.44-17.95,1.19-25.93,4.9-8.44,13.27-13.48,22.4-13.48,4.54,0,9.03,1.31,13,3.78l.08.05c.21.11.39.23.56.35.3.2.55.39.83.64,2.62,2.1,4.77,4.63,6.42,7.42-1.76-4.1-4.48-7.81-8.1-10.72-.28-.25-.53-.44-.83-.64-.17-.12-.35-.24-.56-.35l-.08-.05c-3.97-2.47-8.46-3.78-13-3.78-9.13,0-17.5,5.04-22.4,13.48-5.26,9.06-4.78,20.24.49,29.23Z"/>
          <path class="cls-15" d="m379.8,298.16c-6.38,1.53-11.72,5.46-15.59,11.14-1.44,2.11,1.82,4.14,3.24,2.05,3.29-4.83,7.98-7.98,13.35-9.27,2.36-.57,1.36-4.49-1-3.92Z"/>
          <path class="cls-23" d="m362.79,313.83c-1.06-.32-1.93.39-2.3,1.42-.42,1.17-.85,2.35-1.27,3.52-.37,1.03.4,2.23,1.31,2.5,1.06.32,1.93-.39,2.3-1.42.42-1.17.85-2.35,1.27-3.52.37-1.03-.4-2.23-1.31-2.5Z"/>
        </g>
      </g>
    </g>
  </g>
</svg>