<svg width="20" height="20" viewBox="0 0 20 20" fill="none" xmlns="http://www.w3.org/2000/svg">
    <path d="M2.045 6.61625C2.27941 6.38191 2.5973 6.25027 2.92875 6.25027C3.26021 6.25027 3.57809 6.38191 3.8125 6.61625L10 12.8038L16.1875 6.61625C16.4233 6.38855 16.739 6.26256 17.0668 6.26541C17.3945 6.26826 17.708 6.39972 17.9398 6.63148C18.1715 6.86324 18.303 7.17675 18.3058 7.5045C18.3087 7.83225 18.1827 8.148 17.955 8.38375L10.8837 15.455C10.6493 15.6893 10.3315 15.821 10 15.821C9.66854 15.821 9.35066 15.6893 9.11625 15.455L2.045 8.38375C1.81066 8.14934 1.67902 7.83145 1.67902 7.5C1.67902 7.16854 1.81066 6.85066 2.045 6.61625Z" fill="white"/>
    </svg>
    