<svg width="42" height="42" viewBox="0 0 42 42" fill="none" xmlns="http://www.w3.org/2000/svg">
    <path d="M7 35C6.0375 35 5.21325 34.657 4.52725 33.971C3.84125 33.285 3.49884 32.4613 3.5 31.5V10.5C3.5 9.5375 3.843 8.71325 4.529 8.02725C5.215 7.34125 6.03867 6.99884 7 7H35C35.9625 7 36.7868 7.343 37.4728 8.029C38.1588 8.715 38.5012 9.53867 38.5 10.5V31.5C38.5 32.4625 38.157 33.2868 37.471 33.9728C36.785 34.6588 35.9613 35.0012 35 35H7ZM21 22.75L7 14V31.5H35V14L21 22.75ZM21 19.25L35 10.5H7L21 19.25ZM7 14V10.5V31.5V14Z" fill="white"/>
    </svg>
    