<svg width="42" height="42" viewBox="0 0 42 42" fill="none" xmlns="http://www.w3.org/2000/svg">
    <path d="M11.445 8.75C11.55 10.3075 11.8125 11.83 12.2325 13.2825L10.1325 15.3825C9.415 13.2825 8.96 11.06 8.8025 8.75H11.445ZM28.7 29.785C30.1875 30.205 31.71 30.4675 33.25 30.5725V33.18C30.94 33.0225 28.7175 32.5675 26.6 31.8675L28.7 29.785ZM13.125 5.25H7C6.0375 5.25 5.25 6.0375 5.25 7C5.25 23.4325 18.5675 36.75 35 36.75C35.9625 36.75 36.75 35.9625 36.75 35V28.8925C36.75 27.93 35.9625 27.1425 35 27.1425C32.83 27.1425 30.7125 26.7925 28.7525 26.145C28.5788 26.082 28.3947 26.0523 28.21 26.0575C27.755 26.0575 27.3175 26.2325 26.9675 26.565L23.1175 30.415C18.157 27.8782 14.1218 23.843 11.585 18.8825L15.435 15.0325C15.925 14.5425 16.065 13.86 15.8725 13.2475C15.2086 11.2316 14.8719 9.1224 14.875 7C14.875 6.0375 14.0875 5.25 13.125 5.25Z" fill="white"/>
    </svg>
    