<svg width="34" height="34" viewBox="0 0 34 34" fill="none" xmlns="http://www.w3.org/2000/svg">
    <path d="M8.55667 11.0104C5.07167 11.7995 3.32917 12.1933 2.91409 13.5264C2.50042 14.858 3.68759 16.2478 6.06334 19.0259L6.67817 19.7441C7.35251 20.5332 7.69109 20.9285 7.84267 21.4158C7.99426 21.9045 7.94326 22.4315 7.84126 23.4841L7.74776 24.4432C7.38934 28.1506 7.20942 30.0036 8.29459 30.8267C9.37976 31.6512 11.0118 30.899 14.2729 29.3973L15.1187 29.0091C16.0452 28.5813 16.5084 28.3688 17 28.3688C17.4916 28.3688 17.9548 28.5813 18.8828 29.0091L19.7257 29.3973C22.9883 30.899 24.6203 31.6498 25.704 30.8281C26.7906 30.0036 26.6107 28.1506 26.2523 24.4432M27.9367 19.0259C30.3124 16.2492 31.4996 14.8595 31.0859 13.5264C30.6708 12.1933 28.9283 11.798 25.4433 11.0104L24.5423 10.8064C23.5521 10.5825 23.0577 10.4706 22.6596 10.1689C22.2629 9.86712 22.0079 9.40954 21.4979 8.49437L21.0333 7.66137C19.2383 4.44271 18.3416 2.83337 17 2.83337C15.6584 2.83337 14.7617 4.44271 12.9668 7.66137" stroke="white" stroke-width="1.5" stroke-linecap="round"/>
    </svg>
    